<?xml version="1.0" encoding="UTF-8"?>
<svg id="Layer_1" data-name="Layer 1" xmlns="http://www.w3.org/2000/svg" viewBox="0 0 1080 1080">
  <defs>
    <style>
      .cls-1 {
        fill: #298891;
      }

      .cls-2 {
        fill: #17375b;
      }

      .cls-3 {
        fill: #1e3c5e;
      }

      .cls-4 {
        fill: #19395d;
      }

      .cls-5 {
        fill: #21304b;
      }

      .cls-6 {
        fill: #229ba8;
      }

      .cls-7 {
        fill: #229ba9;
      }

      .cls-8 {
        fill: #1d3b5e;
      }

      .cls-9 {
        fill: #209baa;
      }

      .cls-10 {
        fill: #219ba9;
      }

      .cls-11 {
        fill: #2699a6;
      }

      .cls-12 {
        fill: #1c385b;
      }

      .cls-13 {
        fill: #142847;
      }

      .cls-14 {
        fill: #1e395b;
      }

      .cls-15 {
        fill: #16375c;
      }

      .cls-16 {
        fill: #172a48;
      }

      .cls-17 {
        fill: #3b959e;
      }

      .cls-18 {
        fill: #0d1f3c;
      }

      .cls-19 {
        fill: #4598a2;
      }

      .cls-20 {
        fill: #239ca9;
      }

      .cls-21 {
        fill: #38939b;
      }

      .cls-22 {
        fill: #219aa8;
      }

      .cls-23 {
        fill: #208f99;
      }

      .cls-24 {
        fill: #2e949a;
      }

      .cls-25 {
        fill: #253a58;
      }
    </style>
  </defs>
  <path class="cls-20" d="M526,530v-129.5c.88-1.43,1.99-1.38,3.45-1.55,12.02-1.41,37.8-.61,49.93,1.17,43.79,6.44,64.13,44.09,53.13,85.89-12.65,48.07-66.17,47.6-106.51,43.99ZM554,424c-.16.16-2.39-.55-2.09,1.43l.09,80.58,1.99-1.01c.07,1.81.63,2.67,2.47,3.02,6.59,1.24,24.67-2.11,31.04-5.01,24.26-11.01,27.6-54.24,7.82-70.84-11.46-9.62-23.02-8.55-36.83-9.16-1.4-.06-3.15-1.12-3.92-1.04-1.01.1-.43,1.88-.58,2.03ZM552.5,507v1c.65-.33.65-.67,0-1Z"/>
  <path class="cls-4" d="M456,508c-.13,1.06-2.43.51-1.99,1.99l52.29.21c5.35,1.58,1.53,13.65,1.7,17.8h-79v-125.5l1.5-1.5h77.5c1.84,6.51.71,12.48,0,18.99l-51.36-.03c-1.23.24-.43,1.54-.63,2.04-.29.72-.92,1.01-1.04,2.41-.53,6.02-.7,19.29,0,25.14.17,1.46.12,2.57,1.55,3.45h47.5v23h-49c.06,9.17-.06,18.38-.05,27.57,0,1.61,1.08,4.16,1.05,4.43Z"/>
  <path class="cls-7" d="M867,522c-11.07,9.38-23.59,13.58-38.02,9.52-8.1-2.28-16.61-9.38-17.92-18.08-4-26.63,10.81-37.65,35.39-39.48,3.38-.25,19.92,1.16,20.58-1.62,2.32-27.23-33.24-18.9-48.51-11.34-3.16-2.19-.63-5.67-.54-8.51.38-11.21-3.19-11.87,8.22-15.77,13.99-4.78,40.61-6.4,53.14,2.21,1.11.76.54,1.99.64,2.07l.02,1.98c.62.2,1.52-.15,1.98.02,1.41,3.93,3.33,3.28,3.97,4.78.68,1.61,4.03,13.5,4.03,14.72v65.5l-20.01,1.01-1.99-5.01c0-.66-.06-1.35,0-2,.07-.76,1.49-1.41.51-1.98-.83.34-1.12,1.65-1.51,1.98ZM867,487c-13.03.43-37.37.42-32.32,19.83,3.31,12.73,26.14,7.23,32.32-1.33v-18.5Z"/>
  <path class="cls-7" d="M688,433c1.5-.02,4.6-.04,6,0,.66.02,1.34.01,2,0-.58,2.98,1.44,1.81,3.31,2.14,6.04,1.08,11.04,2.26,16.69,4.86,2.23,3.93,8.39,10.26,9.56,13.94.3.93,1.44,9.56,1.44,10.56v63l-1.5,1.5h-18.5v-8c-2-.29-2.48-.09-4,1-3.83,2.75-6.34,5.91-11.47,8.03-17.55,7.25-41.92,1.84-44.42-19.63-2.99-25.73,13.73-34.58,36.4-36.38,3.43-.27,19.87,1.07,20.53-1.67,1.82-27.26-33.28-18.83-48.51-11.34-2.1-.41-2-15.88-1.5-18.47.69-3.63,2.5-2.9,4.97-3.53,6.04-1.53,12.42-2.86,18.57-3.98,1.86-.34,4,1.14,3.43-2.02,2.33-.03,4.67.03,7,0ZM704,487c-13.91.77-37.51-.59-32.79,20.29,2.74,12.12,27.14,6.58,32.79-1.79v-18.5Z"/>
  <path class="cls-10" d="M762,526c-.41-.3-1.73-.21-2.51-.95-2.6-2.45-6.49-10.14-6.49-13.55v-56.5c-6.7-.92-14.19,3.37-15.06-5.44-1.47-14.9-.28-16.89,15.06-15.56v-25h25c-.39,8.25.54,16.78,0,25-.01.17-1.45,1.02-1,1.99l24.01,1.02-1.01,14.99h-15.5c-2.05,0-6.98.27-8.01,1.99-1.81,3.02.16,17.27.13,21.67-.05,9.95-1.42,20.78.4,30.81.49,2.7,2.56,3.89,4.98,4.52.31.08.68-.07,1,0-.85,2.64,4.29,2.76,5.62,2.88,4.12.36,8.27.01,12.38.12-.22,4.82,1.01,10.27-2.02,14.49-3.88,2.79-23.98,1.76-28.96,0-2.45-.87-5.93-4.84-8.02-2.48Z"/>
  <path class="cls-22" d="M376,485c0-.13.99-1.15,1.05-2.43.41-8.97-6.91-24.64-11.8-32.31-1.94-3.05-7.69-8.8-8.71-11.3-2.51-6.11,4.6-11.94,10.05-8.01,1.94,1.4,10.22,14.41,11.78,17.18,12.8,22.83,15.9,49.47,8.64,74.86-10.17,35.56-44.49,63.75-80.55,68.95-31.92,4.61-47.31-10.78-73.39,17.85-3.84,4.21-12.59,20.35-19.54,13.18-5.6-5.77,5.4-12.07,6.49-17.98.25-.14.54-.71,1-1,3.48-2.17,8.41-7.73,11-12,25.44-17.38,34.43-11.43,62.55-11.95,10.08-.19,22.06-3.34,31.7-6.35,1.65-.52,3.26-.24,2.76-2.7.54-.17,1.43.15,2,0,3.45-.93,12.05-5.32,13-9,.59-.4,1.47-.59,2-1l1-1,3-3,1-1c1.63-1.58,4.68-4.48,6-6l1-1c.4-.48.14-2.71,2-3l1-1,1-2,1-1v-1c2.37.11,2.59-1.42,3.54-2.96,7.92-12.95,12.02-30.36,11.46-45.58-.07-1.92,1.03-4.01-2-3.45.05-1.33-.04-2.67,0-4Z"/>
  <path class="cls-6" d="M347,499c.74-6.21.13-12.53-1.49-19.01-1.08-4.31-7.73-15.72-7.54-17.46.17-1.59,3.93-6.33,5.55-6.59,6.34-1.02,5.75,4.42,7.71,5.86.65.48,1.49.06,1.77.2,3.02,8.64,4.95,16.31,7.53,25.02.49,1.65-.2,3.55,2.47,2.98.05.66-.03,1.34,0,2-3.02-.56-1.93,1.53-2,3.45-1.11,31.37-18.22,55.95-49,64.04-28.59,7.52-65.93-6.46-89.01,14.99-4.49,4.18-15.35,20.65-19.69,21.33-3.59.56-6.61-2.1-7.06-5.53-.3-2.31,3.44-4.43,2.76-7.29.35-.31.66-.68,1-1,4.01-3.82,5.46-5.1,8-10,5.25-3.25,9.55-10.74,15.27-14.28,7.97-4.92,18.17-6.41,27.24-7.76,1.86-.28,4.05,1.26,3.49-1.96,1,.02,2-.01,3,0,23.35.34,37.69,5.07,61.09-4.46,1.54-.63,3.5.1,2.91-2.54.52-.2,1.27-.68,2-1,1.82-.8,4.65-.11,4-3,.27-.13.73.13,1,0,4.82-2.34,4.39-2.76,7-7,.61-.99,1.93-1.86,2-2,1.42-.48,2.02-1.51,2-3,.15-.09-.13-.71,0-1,2.43.53,2.06-1.24,2.82-2.63,3.05-5.64,3.15-7.29,4.18-13.37.06-.32-.06-.68,0-1,1.62-.85.94-3.4,1-5,.09-.98-.12-2.02,0-3Z"/>
  <path class="cls-8" d="M251,442.5c.28-.99,2.35-2.25,3.53-2.47,2.66-.51,22.7-.33,24.46.49.47.22,2.02,1.81,2.02,1.98v87l-1.5,1.5h-27l-1.5-1.5v-87Z"/>
  <path class="cls-12" d="M802,627c1.88-2.39,6.51.46,4.23-5.72s-16.02-17.09-16.28-19.83c-.22-2.21,3.5-6.47,5.54-6.46,4.23.01,14.75,13.39,16.69,17.34,1.5,3.05,3.4,11.77,4.84,13.16,3.13,3.06,14.49.84,18.99,1.51v-24.5l1.66-1.34c9.64-2.24,9.69,5.83,7.35,12.83l6.49-6.05c.64-.84,1.88-.64,2.51-.94,1.64-.79,6.5-.59,6-4,1.03-.38,1.92-.72,3-1l15.25,1.25c14.35,3.71,12.13,19.17,6.75,29.75-5.58,1.14-11.75,2.8-17.46,3.04-14.78.63-35.02.39-49.54-1.04-1.81-.18-3.36-.76-5-1-.93-.13-2.02.07-3,0-5.05-.34-6.55,1.47-11.51,1.99-4.35.46-9.41-.15-13.85-.13-2.14-.71-1.9-3.87-1.5-5.73l9.86-2.13c.64-.08,1.4.12,2,0l6.43,1.05c1.16-.2.37-1.79.57-2.05ZM847,627h31.5c3.25,0,2.97-11.7,2.02-14.01-11.63-8.11-28.71,2.15-33.52,14.01Z"/>
  <path class="cls-2" d="M662,573c-1.19,16.9,1.58,35.89.04,52.54-.33,3.56-1.27,8.63-5.57,9.43-8.5,1.59-17.82-1.35-25.99-1.64-1.72-.06-2.78-1.11-2.49,1.67-.33-.03-.67.02-1,0-5.73-.43-11.44,1.2-16.47,1.05-4.34-.13-6.61-3.1-11.53-2.05-.8.17-1.93.72-3,1l-19.55,1.05c-2.45-.8-8.7-.41-10.45-1.05-.23-.08-3.56-3.09-3.7-3.29-1.29-1.78-.12-5.46-3.3-4.71-.03-.19-.97-.85-1-2,0-.18,1.09-1.53,1.07-3.38-.18-15.54,0-31.1-.08-46.62h6.01v49.51c0,6.04,24.81,5.56,28,4,1.19-.58,1.74-1.77,1.97-3.03.59-3.27.4-20.59,1.1-21.4l6.92-.08c.04.66-.03,1.34,0,2-1.4,3.75-1.91,17.97-.07,20.57,2.44,3.45,20.26,3.46,23.16,1.01,4.04-3.41.82-16.61,2.05-21.95.49-1.67,1.83-1.55,3.33-1.68.83-.07,1.7.07,2.53.05l.17,22.82c5.75,3.19,12.83,2.7,18.83,1.17.94-.24,1.37-.72,2-1,.42-.18,1.38.14,2,0,.46-1.05-.99-1.88-1-2-1.15-16.34.89-33.88-.05-50.36.32-1.37,4.33-.86,6.05-1.64Z"/>
  <path class="cls-13" d="M456,508h55v21.5l-1.5,1.5h-81l-1.5-1.5v-129l1.5-1.5h81l1.5,1.5v21.5h-55c.2-.51-.6-1.8.63-2.04l51.36.03c.72-6.51,1.84-12.48,0-18.99h-77.5l-1.5,1.5v125.5h79c-.17-4.15,3.65-16.22-1.7-17.8l-52.29-.21c-.43-1.48,1.86-.93,1.99-1.99Z"/>
  <path class="cls-11" d="M265.74,609.24c5.96-1.02,16.04-1.52,17.22,6.33,1.51,10.16-5.62,7.47-11.35,8.53-6.06,1.13-10.72,3.59-15.15,7.85-5.39,5.19-11.52,20.75-21.03,15.1-7.4-4.39-1.75-11.97,1.6-16.54,5.88-8.02,18.68-19.58,28.71-21.29Z"/>
  <path class="cls-14" d="M770,599c.33.02.67-.01,1,0,2.96,8.96-2.52,4.91-6.51,5.19-9.23.65-14.5,6.04-12.27,15.6,2.33,1.84,4.07,1.93,6.78,2.21.33.03.67-.04,1,0-.33,3.54,5.88,2.35,7.77,4.23,3.78,3.79,1.45,13.02-1.77,16.77-9.5,11.08-27.54,8.45-40,5-1.95-4.82-6.27-4.75-8.45-8.05-2.5-3.77-5.42-23.3-.94-24.84l3.39-.11v14.5c0,.38,2.46,6.23,2.98,7.02,4.5,6.7,15.22,8.17,22.6,7.53,1.33-.12,2.18-1.01,2.42-1.04,2.31-.29,4.74-.44,7-1,.88-.22,1.78.09,2.98-.51,1.14-.57,1.38-1.68,2.02-2.49,1.27-1.61,3.11-5,3-7-.23-4.22-7.71-4.09-10.89-5.6-2.95-1.4-3.35-4.05-6.11-4.4-.28-.63-.77-1.05-1-2,2.02-2.05.69-6.14,1-9,.1-.97-.16-2.1,0-3,3.71.7,4.65-5.78,5-6,3.34-2.13,14.81-3.23,19-3Z"/>
  <path class="cls-3" d="M515,576v49c.28.44,1.63-1.01,2-1,.64.01,1.14,1.73,1.72,2,4,1.84,14.05,1.43,18.28,0,.49-.16,1.37.14,2,0-1.84-5.82-.66-11.99-1-18l1-5h5v26.5c0,7.63-25.91,5.99-31.06,4.03-2.2-.84-1.93-1.77-2.94-3.53-.32-.57-.92-1.92-1-2,2.05-.49.21-3.22-1-4,.12-.6-.09-1.36,0-2,.06-.47.92-1.55,1.07-3.38,1.19-14.23-1.04-30.2-.07-44.62,3.8-1.05,4.28.91,6,2Z"/>
  <path class="cls-12" d="M487,627c.11,0,.29.95.49.94,2.89-.17.92-19.12,1.51-22.43.24-1.33.94-2.82,2.48-2.5,1.26,1,2.17,1.84,2.49,3.52.81,4.25.43,20.81-1.56,24.39-.63,1.13-2.92,3.53-4.12,3.88-4.82,1.4-21.51.16-27.83.17-6.85,0-13.45,1.3-20.91,0-4.37-.76-12.54-6.63-12.54-11.46v-18c.74-1.41,3.76-2.16,4.91-1.4,3.51,2.31-3.33,19.71,6.87,23.63,6.93,2.66,33.79,1.58,42.76,1.28,1.93-.06,4.01,1.02,3.45-2,.67,0,1.33,0,2,0Z"/>
  <path class="cls-24" d="M325,392v114.5c0,2.35-4.73,11.32-6.48,13.52-4.46,5.6-14.14,11.27-21.39,10.86-1.86-3.4.11-6.65-.06-10.39-1.6-37.05-4.07-85.49-1.11-122.02.16-1.97.52-3.86,1.01-5.76,1.72-2.81,23.91-1.99,28.03-.7ZM323,394c0-1.26-23.78-1.22-24.89.1l-.1,133.9c7.71.93,17.81-6.9,21.42-13.07.5-.85,3.57-8.92,3.57-9.43v-111.5Z"/>
  <path class="cls-17" d="M388,523c-10.7,37.84-42.56,67.36-82.63,70.87-18.78,1.65-44.82-4.58-60.38,7.62-7.63,5.98-12.85,15.15-19.46,21.54-10.57,10.21-20.2-1.18-11.98-11.98,1.22-1.6,5.21-5.33,6.45-6.05-1.09,5.91-12.08,12.21-6.49,17.98,6.95,7.16,15.71-8.97,19.54-13.18,26.08-28.63,41.47-13.24,73.39-17.85,36.06-5.2,70.38-33.39,80.55-68.95h1Z"/>
  <path class="cls-21" d="M363,492c1.77,38.11-24.56,68.38-62.63,71.87-23.51,2.16-56.21-5.5-75.38,11.62-5.26,4.7-15.16,21.09-20.71,22.32-8.23,1.82-12.8-6.82-8.17-13.24,1.21-1.67,2.56-1.28,2.89-1.57.68,2.86-3.06,4.98-2.76,7.29.44,3.43,3.47,6.09,7.06,5.53,4.34-.68,15.2-17.15,19.69-21.33,23.08-21.45,60.42-7.48,89.01-14.99,30.78-8.09,47.9-32.67,49-64.04.07-1.92-1.02-4.01,2-3.45Z"/>
  <path class="cls-5" d="M487,627l.14-24.36,1.5-1.5,7.36-.14v29.5c0,2.14-5.11,6.06-7.56,6.44-8.88,1.4-37.48,1.01-46.93.05-3.04-.31-10.03-2.34-12.21-4.3-1.18-1.06-4.3-7.85-4.3-9.19v-20c2.15-2.36,7.85-2.36,10,0v17c0,.82,2.6,3.78,3.62,4.38,6.39,3.82,36.92,2.02,46.38,2.12.56,3.02-1.53,1.94-3.45,2-8.97.3-35.83,1.38-42.76-1.28-10.2-3.92-3.36-21.32-6.87-23.63-1.15-.76-4.17,0-4.91,1.4v18c0,4.83,8.18,10.69,12.54,11.46,7.46,1.31,14.06,0,20.91,0,6.32,0,23.01,1.24,27.83-.17,1.2-.35,3.49-2.75,4.12-3.88,1.99-3.57,2.37-20.14,1.56-24.39-.32-1.68-1.22-2.52-2.49-3.52-1.54-.32-2.24,1.17-2.48,2.5-.59,3.32,1.38,22.27-1.51,22.43-.21.01-.39-.94-.49-.94Z"/>
  <path class="cls-15" d="M678,574l7.02.58v60.43s-7.02-1-7.02-1c-.03-1,.06-2.01,0-3,1.65-1.26,1.65-5.74,0-7,.27-16.64-.2-33.36,0-50Z"/>
  <path class="cls-24" d="M388,523h-1c7.26-25.39,4.17-52.04-8.64-74.86-1.56-2.78-9.84-15.79-11.78-17.18-5.46-3.93-12.57,1.9-10.05,8.01,1.03,2.49,6.77,8.25,8.71,11.3,4.89,7.68,12.22,23.34,11.8,32.31-.06,1.28-1.04,2.3-1.05,2.43-1.62-8.34-3.41-16.67-7.12-24.38-3.02-6.28-15.57-20.65-14.7-25.87,1.3-7.81,9.82-9.48,15.34-3.77,23.12,23.87,27.12,61.46,18.48,92.02Z"/>
  <path class="cls-18" d="M234,481c1.22,2.15,1.73,2.81,2,5.5,1.43,14.08-.95,30.52-.14,44.86l-.85,1.15c-4.92,1.6-10.31,3.59-14.71,6.29-5.07,3.11-8.73,8.32-14.31,10.19v-68.5c4.99-4.68,11.19-1.52,16.5-1.42,3.38.07,7.49-2.48,10.88-.16,1.03.7.44,1.76.62,2.07-.76-1.19-19.63-1.39-22.55-1.05-1.46.17-2.57.12-3.45,1.55v63.5c7.91-5.65,16.07-12.6,25.96-14.04l.04-49.96Z"/>
  <path class="cls-16" d="M558,625v-52.01c3.29.37,7.62-1.23,10,1.51v50c0,1.79,3.96,2.41,5.44,2.56,3.23.32,20.56.85,20.56-2.56v-22.5h9.01c.05.66-.05,1.34,0,2l-6.92.08c-.71.81-.51,18.13-1.1,21.4-.23,1.26-.78,2.45-1.97,3.03-3.2,1.55-28,2.04-28-4v-49.5h-6.01c.07,15.52-.11,31.08.08,46.62.02,1.85-1.08,3.2-1.07,3.38Z"/>
  <path class="cls-23" d="M778,434c4.81.83,20.54-1.51,23.6.9,2.5,1.97,2.29,20.1-1.1,20.1h-22.5v46.5c0,3.2,3.03,6.6,4,9.5-2.42-.63-4.49-1.82-4.98-4.52-1.82-10.03-.44-20.86-.4-30.81.02-4.41-1.94-18.65-.13-21.67,1.03-1.72,5.97-1.99,8.01-1.99h15.5l1.01-14.99-24.01-1.02c-.45-.97.99-1.82,1-1.99Z"/>
  <path class="cls-13" d="M628,635c-.3-2.78.76-1.73,2.49-1.67,8.17.29,17.49,3.23,25.99,1.64,4.29-.8,5.23-5.87,5.57-9.43,1.55-16.65-1.23-35.64-.04-52.54.39-.18.71-.67,1-1l1.51.95c.1,15.87,1.55,32.69.54,48.6-.19,2.99-.8,9.45-2.15,11.85-4.09,7.26-27.53,2.36-34.9,1.6Z"/>
  <path class="cls-16" d="M653,628c-6,1.54-13.08,2.02-18.83-1.17l-.17-22.82c-.83.02-1.7-.12-2.53-.05-1.5.13-2.84.01-3.33,1.68-1.23,5.34,1.98,18.54-2.05,21.95-2.9,2.45-20.72,2.44-23.16-1.01-1.84-2.6-1.33-16.82.07-20.57,1.01,19.35-3.89,23.29,21,20.5.45-.27,2-2.72,2-3v-21c2.15-2.36,7.85-2.36,10,0v22c4.69,4.58,11.77.82,17,3.5Z"/>
  <path class="cls-19" d="M696,433c4.09-.08,17.45,2.22,19.83,5.21.48.6.03,1.54.17,1.79,3.11,1.43,5.95,3.59,7.84,6.66,1.22,1.98,5.16,12.98,5.16,14.84v69.5h-22.5c-2.63-2.14-1.2-5.99-1.5-9.01h-2c1.52-1.08,2-1.29,4-1v8h18.5l1.5-1.5v-63c0-1-1.14-9.63-1.44-10.56-1.17-3.68-7.33-10.01-9.56-13.94-5.65-2.59-10.66-3.77-16.69-4.86-1.87-.34-3.89.84-3.31-2.14Z"/>
  <path class="cls-1" d="M880,441c1.16.96.7-1.64,2,2,1.27.45,1.78.15,3.03,1.44,2.94,3.03,6.97,16.93,6.97,21.06v63c0,.28-1.03,2.33-1.69,2.54l-20.67-.17-1.5-1.52c-.34-1.77-.13-3.56-.14-5.34l1.99,5.01,20.01-1.01v-65.5c0-1.22-3.35-13.11-4.03-14.72-.64-1.5-2.56-.85-3.97-4.78-.46-.16-1.36.19-1.98-.02l-.02-1.98Z"/>
  <path class="cls-25" d="M748,643c-.24.03-1.1.92-2.42,1.04-7.38.65-18.1-.83-22.6-7.53-.53-.78-2.98-6.63-2.98-7.02v-14.5l-3.39.11c-4.49,1.55-1.56,21.08.94,24.84,2.19,3.29,6.5,3.23,8.45,8.05,12.46,3.45,30.5,6.08,40-5h2c-.43.65-.28,1.9-1.41,3.05-7.9,8.05-23.53,8.04-33.79,5.66-1.06-.25-6.43-1.62-6.68-1.86-.47-.45.03-1.48-.12-1.85-.56-.16-1.42.08-2.27-.22-3.17-1.12-9.17-9.63-10.04-12.97-1.74-6.7-.57-15.02.37-21.76l8.51.88c.88,12.58-2.41,24.37,13.38,27.62,4.17.86,8.48-.55,12.06,1.44Z"/>
  <path class="cls-23" d="M762,526c2.1-2.36,5.57,1.6,8.02,2.48,4.98,1.77,25.08,2.8,28.96,0,3.03-4.22,1.8-9.67,2.02-14.49-4.11-.1-8.27.24-12.38-.12-1.33-.11-6.47-.24-5.62-2.88,6.67,1.46,13.4.14,19.56,1.94-.15,9.79,4.71,16.88-7.18,18.95s-23.43,1.4-33.39-5.89Z"/>
  <path class="cls-17" d="M329,571c.5,2.46-1.1,2.18-2.76,2.7-9.63,3.02-21.61,6.16-31.7,6.35-28.12.53-37.11-5.43-62.55,11.95-2.59,4.27-7.52,9.83-11,12,1.97-3.51,5.18-8.86,8.49-11.05,1-.67,2.17-.72,2.51-.95,11.47-18.9,46.65-12.75,65.49-14.01,10.81-.72,21.25-3.83,31.51-6.99Z"/>
  <path class="cls-13" d="M678,574l9-1v64c-2.34-.27-9.26,1.06-9.96-1.61-.13-.69.97-1.27.96-1.39l7,1v-60.43s-7-.58-7-.58Z"/>
  <path class="cls-25" d="M449.26,586.26c5.18-5.47,16.1,1.88,10.2,8.71s-15.9-2.7-10.2-8.71Z"/>
  <path class="cls-25" d="M464.24,595.76c-5.25-5.25,2.91-16.31,9.8-9.3,6.85,6.96-4.96,14.14-9.8,9.3Z"/>
  <path class="cls-25" d="M608.76,644.24c5.13,5.12-1.62,15.31-9.34,9.83-7.77-5.51,3.62-15.55,9.34-9.83Z"/>
  <path class="cls-21" d="M321,541c.59,2.64-1.38,1.91-2.91,2.54-23.39,9.53-37.74,4.8-61.09,4.46,1.57-1.5,3.56-.99,5.46-1.03,22.29-.51,37.09,2.5,58.54-5.97Z"/>
  <path class="cls-25" d="M584.26,644.26c3.02-2.86,9.86-1.37,10.73,3.28,2.71,14.52-20.23,5.72-10.73-3.28Z"/>
  <path class="cls-25" d="M627.72,643.2c10.53-3.1,12.53,13.44.86,11.75-7.14-1.04-5.56-10.37-.86-11.75Z"/>
  <path class="cls-21" d="M353,462c.3.15,1.22-.31,1.81.16,3.11,2.49,7.8,23.12,8.19,27.84-2.67.57-1.98-1.33-2.47-2.98-2.59-8.71-4.51-16.38-7.53-25.02-.29-.14-1.12.28-1.77-.2-1.96-1.43-1.37-6.88-7.71-5.86-1.63.26-5.38,5-5.55,6.59-.19,1.73,6.46,13.14,7.54,17.46,1.62,6.48,2.23,12.79,1.49,19.01-1.63-5.94-.91-11.61-2.7-17.8-2.2-7.62-12.66-18.17-5.38-24.77,6.72-6.09,11.72-1.14,14.08,5.58Z"/>
  <path class="cls-24" d="M376,489c3.03-.56,1.93,1.53,2,3.45.56,15.23-3.54,32.63-11.46,45.58-.95,1.55-1.16,3.08-3.54,2.96,10.54-18.96,12.22-30.56,13-52Z"/>
  <path class="cls-16" d="M885,633c5.38-10.58,7.6-26.04-6.75-29.75l-15.25-1.25c7.75-1.99,19.61-3.12,25.02,4.48,3.6,5.06,3.69,20.92-.49,25.6-.69.78-2.23.67-2.53.93Z"/>
  <path class="cls-25" d="M544.75,585.25c4.66,12.32-12.96,13.8-9.6-.11,3.04-1.45,6.67-1.75,9.6.11Z"/>
  <path class="cls-5" d="M771,599c1,.04,2.01-.05,3,0v8.01c-6.34-1.34-23.24.14-19.88,10.32.89,2.71,5.42,1.31,4.87,4.67-2.71-.28-4.45-.37-6.78-2.21-2.24-9.56,3.04-14.95,12.27-15.6,3.99-.28,9.47,3.77,6.51-5.19Z"/>
  <path class="cls-18" d="M517,576v48c-.37,0-1.72,1.44-1.99,1v-49c.3.2,1.41-.13,1.99,0Z"/>
  <path class="cls-13" d="M517,576c-.58-.13-1.69.2-2,0-1.72-1.09-2.2-3.05-6-2-.96,14.42,1.26,30.39.07,44.62-.15,1.83-1.01,2.92-1.07,3.38-1.66-1.04-1-3.79-1.02-5.49-.1-9.86-1.58-31.39.24-39.79,1.11-5.13,9.19-5.59,9.78-.72Z"/>
  <path class="cls-18" d="M885,633c-.09.08.28,1.41-.64,2.06-1.09.77-6.23,1.78-7.87,1.93-15.33,1.44-41.88,1.04-57.49.01l-1-2c14.52,1.43,34.76,1.67,49.54,1.04,5.71-.24,11.88-1.9,17.46-3.04Z"/>
  <path class="cls-13" d="M793,628l-9.86,2.13c-.4,1.86-.64,5.02,1.5,5.73,4.44-.02,9.5.58,13.85.13,4.96-.52,6.47-2.32,11.51-1.99-7.59,4.47-18.71,3.79-27.36,3.86l-1.2-.8c-.75-2.93-1.2-6.84.96-9.16,1.92-1.52,8.4-1.53,10.6.1Z"/>
  <path class="cls-5" d="M768,643h-2c3.21-3.75,5.54-12.98,1.77-16.77-1.88-1.89-8.1-.7-7.77-4.23.19.02.62-1.01,3.47-.06,9.13,3.05,10.43,10.3,6.75,18.81-.61,1.42-1.88,1.73-2.21,2.24Z"/>
  <path class="cls-5" d="M663,572c-.29.33-.61.82-1,1-1.72.78-5.73.27-6.05,1.64.94,16.48-1.1,34.02.05,50.36h-1c0-17.65,0-35.35,0-53.01h8.01Z"/>
  <path class="cls-13" d="M545,602c.61,7.77-1.29,16.55,1,24-.34,1.79-.58,5.81-1.51,6.99-.73.94-2.42.91-3.41,1.64-.8.6-.91,2.15-1.8,2.38-2.97.78-22.42.04-25.51-1.09-2.6-.95-3.2-4.88-3.78-5.92,1.01,1.76.73,2.7,2.94,3.53,5.15,1.95,31.06,3.6,31.06-4.03v-26.5h-5s-1,5-1,5c-.05-.85-.04-1.73-1-2,.05-1.2-.59-3.28.59-4.1,2.64-1.28,4.8-.75,7.41.1Z"/>
  <path class="cls-21" d="M254,548c.56,3.22-1.63,1.68-3.49,1.96-9.06,1.35-19.27,2.84-27.24,7.76-5.73,3.54-10.02,11.03-15.27,14.28-2.54,4.9-3.99,6.18-8,10,.19-1.96,3.26-6.71,4.41-8.08,1.43-1.71,2.62-1.32,3.59-1.92,8.14-15.72,28.28-24.43,46-24Z"/>
  <path class="cls-18" d="M627,635c-.7,2.3-2.58,1.93-4.45,2.06-6.52.44-18.84,1.37-23.55-3.06,4.92-1.05,7.19,1.92,11.53,2.05,5.03.15,10.74-1.48,16.47-1.05Z"/>
  <path class="cls-25" d="M746,622c2.76.35,3.15,2.99,6.11,4.4,3.18,1.51,10.66,1.38,10.89,5.6-4.59-1.01-13.31-2.48-16.07-6.47-1.05-1.52-.59-2.77-.93-3.53Z"/>
  <path class="cls-25" d="M545,602c.6.2,2-.6,2.04.59-.61,6.76.66,14.37,0,21-.14,1.37-.98,2.09-1.04,2.41-2.29-7.45-.39-16.23-1-24Z"/>
  <path class="cls-19" d="M681,433c.57,3.17-1.57,1.69-3.43,2.02-6.16,1.12-12.53,2.44-18.57,3.98,5.58-4.42,15.12-5.9,22-6Z"/>
  <path class="cls-18" d="M596,635c-8.64,2.24-21.38,3.48-30,1v-1c1.75.63,8.01.24,10.45,1.05l19.55-1.05Z"/>
  <path class="cls-5" d="M770,599c-4.19-.23-15.66.87-19,3-.35.22-1.29,6.7-5,6,.9-5.07,2.77-4.18,5-6,.09-.08-.4-1.35.74-1.97,4.56-2.49,13.3-3.02,18.26-1.03Z"/>
  <path class="cls-21" d="M346,508c-1.04,6.08-1.14,7.73-4.18,13.37-.75,1.39-.38,3.17-2.82,2.63l7-16Z"/>
  <path class="cls-16" d="M559,627c3.17-.76,2.01,2.93,3.3,4.71.15.2,3.47,3.21,3.7,3.29v1c-6.21-1.79-6.13-3.16-7-9Z"/>
  <path class="cls-25" d="M538,608c.34,6-.84,12.18,1,18-.63.14-1.51-.16-2,0,.2-6.64-.28-13.37,0-20,.96.27.95,1.15,1,2Z"/>
  <path class="cls-21" d="M335,530c-2.61,4.24-2.18,4.66-7,7,.6-3.04,3.94-6.26,7-7Z"/>
  <path class="cls-25" d="M746,611c-.31,2.86,1.02,6.95-1,9-.73-3.02-1.61-5.46-1-9.01h2Z"/>
  <path class="cls-17" d="M344,562c-.95,3.68-9.55,8.07-13,9-.09-2.24,1.34-2.68,2.93-3.57,3.11-1.74,7.07-3.38,10.07-5.43Z"/>
  <path class="cls-16" d="M860,603c.5,3.41-4.36,3.21-6,4,.07-4.04,3.8-3.19,6-4Z"/>
  <path class="cls-13" d="M678,631c-.19-3.27-.04-4.2,0-7,1.65,1.26,1.65,5.74,0,7Z"/>
  <path class="cls-13" d="M802,627c-.21.26.58,1.85-.57,2.05l-6.43-1.05c1.94-.38,4.22-1.84,7-1Z"/>
  <path class="cls-19" d="M694,433c-1.4-.04-4.5-.02-6,0,.95-1.61,4.99-1.64,6,0Z"/>
  <path class="cls-25" d="M760,639c-.64.81-.88,1.92-2.02,2.49-1.2.6-2.1.29-2.98.51-.63-2.88,2.86-2.73,5-3Z"/>
  <path class="cls-13" d="M509,628c-1.4-1.53-2.27,2.37-1-4,1.21.78,3.05,3.51,1,4Z"/>
  <path class="cls-13" d="M818,635l1,2c-1.06-.07-2.2.25-3.25-.02-.89-.23-1.47-2.59-2.75-2.98,1.64.24,3.19.82,5,1Z"/>
  <path class="cls-21" d="M346,507c.23-1.32.97-4.63,1-5-.06,1.6.62,4.15-1,5Z"/>
  <path class="cls-21" d="M339,525c.02,1.49-.58,2.52-2,3,.29-.59-.32-2.63,0-3,.21-.25,1.61.23,2,0Z"/>
  <path class="cls-16" d="M656,625c0,.11,1.46.95,1,2-.62.15-1.58-.18-2,0v-2h1Z"/>
  <path class="cls-21" d="M327,537c.65,2.89-2.18,2.2-4,3,1.63-2.05,2.21-2.11,4-3Z"/>
  <path class="cls-17" d="M350,557c.32-.35.66-.67,1-1l-1,1Z"/>
  <path class="cls-17" d="M346,561c.36-.28.63-.72,1-1l-1,1Z"/>
  <path class="cls-17" d="M357,550c.31-.35.7-.64,1-1l-1,1Z"/>
  <path class="cls-1" d="M868,522h-1c.39-.33.68-1.64,1.51-1.98.98.57-.44,1.22-.51,1.98Z"/>
  <path class="cls-17" d="M362,543l1-1-1,1Z"/>
  <path class="cls-17" d="M360,546l1-1-1,1Z"/>
  <path class="cls-23" d="M554,424v81l-1.99,1.01-.09-80.58c-.3-1.98,1.93-1.27,2.09-1.43Z"/>
  <path class="cls-23" d="M552.5,507c.65.33.65.67,0,1v-1Z"/>
  <path class="cls-9" d="M323,394v111.5c0,.5-3.08,8.58-3.57,9.43-3.61,6.17-13.72,13.99-21.42,13.07l.1-133.9c1.11-1.31,24.89-1.36,24.89-.1Z"/>
  <path class="cls-15" d="M234,481l-.04,49.96c-9.89,1.45-18.05,8.4-25.96,14.04v-63.5c.88-1.43,1.99-1.38,3.45-1.55,2.92-.34,21.79-.14,22.55,1.05Z"/>
</svg>